<?xml version="1.0" encoding="UTF-8" standalone="no"?>
<!-- Created with Inkscape (http://www.inkscape.org/) -->

<svg
   width="200mm"
   height="200mm"
   viewBox="0 0 200 200"
   version="1.1"
   id="svg5"
   inkscape:version="1.2.2 (732a01da63, 2022-12-09)"
   sodipodi:docname="smileyboy.svg"
   xmlns:inkscape="http://www.inkscape.org/namespaces/inkscape"
   xmlns:sodipodi="http://sodipodi.sourceforge.net/DTD/sodipodi-0.dtd"
   xmlns="http://www.w3.org/2000/svg"
   xmlns:svg="http://www.w3.org/2000/svg">
  <sodipodi:namedview
     id="namedview7"
     pagecolor="#ffffff"
     bordercolor="#000000"
     borderopacity="0.25"
     inkscape:showpageshadow="2"
     inkscape:pageopacity="0.0"
     inkscape:pagecheckerboard="0"
     inkscape:deskcolor="#d1d1d1"
     inkscape:document-units="mm"
     showgrid="false"
     inkscape:zoom="1.0181848"
     inkscape:cx="433.12373"
     inkscape:cy="384.99887"
     inkscape:window-width="1920"
     inkscape:window-height="991"
     inkscape:window-x="-9"
     inkscape:window-y="-9"
     inkscape:window-maximized="1"
     inkscape:current-layer="layer3" />
  <defs
     id="defs2" />
  <g
     inkscape:groupmode="layer"
     id="layer3"
     inkscape:label="Background">
    <rect
       style="fill:#3399ff;fill-opacity:1;stroke:#ff522b;stroke-width:0;stroke-linecap:butt;stroke-linejoin:bevel;stroke-dasharray:none;stroke-opacity:1;paint-order:normal"
       id="rect11023"
       width="200"
       height="200"
       x="5e-07"
       y="5e-07" />
    <path
       sodipodi:type="star"
       style="fill:#3399ff;fill-opacity:1;stroke:#000000;stroke-width:3;stroke-linejoin:bevel"
       id="path1335"
       inkscape:flatsided="false"
       sodipodi:sides="5"
       sodipodi:cx="61.066601"
       sodipodi:cy="61.066601"
       sodipodi:r1="30.883753"
       sodipodi:r2="15.441878"
       sodipodi:arg1="0.8986835"
       sodipodi:arg2="1.527002"
       inkscape:rounded="0"
       inkscape:randomized="0"
       d="M 80.296082,85.233381 61.742651,76.493673 44.024864,86.82287 46.603494,66.476791 31.304747,52.81807 51.451859,48.98321 59.714501,30.21246 69.58747,48.188465 89.992811,50.246223 75.94753,65.190866 Z"
       inkscape:transform-center-x="0.41782265"
       inkscape:transform-center-y="-2.548937" />
    <path
       sodipodi:type="star"
       style="fill:#3399ff;fill-opacity:1;stroke:#000000;stroke-width:3;stroke-linejoin:bevel"
       id="path1337"
       inkscape:flatsided="false"
       sodipodi:sides="5"
       sodipodi:cx="124.73177"
       sodipodi:cy="64.704613"
       sodipodi:r1="26.755266"
       sodipodi:r2="13.377634"
       sodipodi:arg1="1.7662871"
       sodipodi:arg2="2.3946057"
       inkscape:rounded="0"
       inkscape:randomized="0"
       d="m 119.53462,90.950257 -4.61854,-17.156464 -16.751407,-5.92162 14.889557,-9.694131 0.45533,-17.761413 13.82079,11.165161 17.03281,-5.055537 -6.34784,16.59458 10.07153,14.636919 -17.74397,-0.909146 z"
       inkscape:transform-center-x="1.6060115"
       inkscape:transform-center-y="0.97882901" />
    <path
       style="fill:#3399ff;fill-opacity:1;stroke:#000000;stroke-width:3;stroke-linejoin:bevel"
       d="m 52.49129,110.43959 c -1.041961,3.48324 -0.779574,7.06838 -0.779574,10.65418 0,1.36553 -0.354345,3.18917 0.259858,4.41758 0.109564,0.21913 0.383816,0.31587 0.519716,0.51972 0.144142,0.21621 -0.06303,0.52747 0,0.77957 0.08841,0.35366 1.483413,2.76107 1.559147,2.85844 0.300826,0.38677 0.787332,0.61926 1.039432,1.03943 0.281855,0.46976 0.205555,1.11034 0.519716,1.55914 0.31806,0.45438 0.938336,0.61832 1.299289,1.03944 0.17826,0.20797 0.107916,0.55166 0.259858,0.77957 1.224108,1.83616 0.236461,-0.091 1.819005,1.03943 0.352425,0.25173 0.473326,0.73319 0.779573,1.03943 0.273913,0.27392 0.707261,0.32042 1.039432,0.51972 1.137425,0.68245 2.14802,0.99175 3.378152,1.29929 1.931199,0.4828 6.363671,-1.68851 8.31545,-2.07887 2.35037,-0.47007 6.07252,0.35755 8.575309,0 1.765004,-0.25214 5.013669,-0.95537 6.756305,-0.51971 0.375809,0.0939 0.683379,0.36712 1.039431,0.51971 0.503534,0.2158 1.058538,0.29723 1.559148,0.51972 1.061958,0.47198 2.015812,1.19165 3.118294,1.55915 0.246523,0.0822 0.538303,-0.0965 0.779574,0 0.227475,0.091 0.309634,0.39366 0.519716,0.51971 0.103708,0.0622 2.422461,0.74435 2.598578,0.77958 0.254813,0.051 0.538303,-0.0965 0.779574,0 0.227473,0.091 0.309634,0.39366 0.519716,0.51971 0.376205,0.22573 1.914071,0.7265 2.338721,0.77958 0.5157,0.0645 1.05775,-0.13675 1.55915,0 0.48727,0.13289 0.83774,0.57444 1.29929,0.77957 0.65272,0.2901 1.37009,0.43112 2.07886,0.51972 0.42975,0.0537 0.93893,-0.24024 1.29929,0 0.20385,0.1359 0.29224,0.42872 0.51971,0.51971 0.71794,0.28717 4.187,-0.0759 4.67745,-0.25986 0.22939,-0.086 0.30555,-0.40073 0.51971,-0.51971 1.05464,-0.58591 2.35507,-0.65987 3.37815,-1.29929 0.26484,-0.16553 0.25986,-0.60634 0.51972,-0.77958 0.29716,-0.1981 0.72935,-0.0827 1.03943,-0.25985 0.31908,-0.18233 0.46794,-0.58481 0.77957,-0.77958 0.39556,-0.24722 0.94513,-0.21615 1.29929,-0.51971 0.29412,-0.2521 0.30484,-0.71712 0.51972,-1.03943 0.30765,-0.46149 0.62203,-0.93407 1.03943,-1.29929 0.29153,-0.25509 0.74185,-0.27173 1.03943,-0.51972 0.23993,-0.19993 0.34648,-0.51972 0.51972,-0.77957 0.34648,-0.17324 0.73694,-0.27773 1.03943,-0.51972 0.27888,-0.2231 -0.0258,-0.82515 0.25986,-1.03943 0.28571,-0.21428 0.76507,-0.0312 1.03943,-0.25986 0.62776,-0.52313 0.67885,-1.54706 1.29929,-2.07886 0.29411,-0.2521 0.78733,-0.2256 1.03943,-0.51972 0.0339,-0.0395 1.47005,-3.37073 1.55915,-3.63801 0.13967,-0.419 0.0623,-0.90424 0.25986,-1.29929 0.15591,-0.31183 0.62366,-0.46774 0.77957,-0.77957 0.53311,-1.06622 -0.75978,-0.32627 0.51971,-1.81901 0.28186,-0.32883 0.76888,-0.44138 1.03944,-0.77957 0.10822,-0.13527 -0.1225,-0.39721 0,-0.51971 0.1225,-0.1225 0.37557,0.0961 0.51971,0 0.50963,-0.33975 0.73061,-1.07182 1.29929,-1.29929 0.3316,-0.13264 0.76055,-0.0368 1.03943,-0.25986 0.21389,-0.17111 0.10065,-0.55668 0.25986,-0.77958 0.39322,-0.5505 0.87667,-1.03087 1.29929,-1.55914 0.75729,-0.94662 1.45543,-0.95669 2.07886,-2.07887 0.22654,-0.40775 0.29635,-0.88978 0.51972,-1.29928 0.5063,-0.92822 1.34615,-1.65288 1.819,-2.59858 0.64002,-1.28004 -1.50859,0.46916 0.51972,-1.55915 0.006,-0.006 0.97169,-0.51972 1.03943,-0.51972"
       id="path1459" />
  </g>
</svg>
